<?xml version="1.0" encoding="utf-8"?>
<!-- Generator: Adobe Illustrator 18.0.0, SVG Export Plug-In . SVG Version: 6.00 Build 0)  -->
<!DOCTYPE svg PUBLIC "-//W3C//DTD SVG 1.1//EN" "http://www.w3.org/Graphics/SVG/1.1/DTD/svg11.dtd">
<svg version="1.1" id="Calque_1" xmlns="http://www.w3.org/2000/svg" xmlns:xlink="http://www.w3.org/1999/xlink" x="0px" y="0px"
	 viewBox="0 0 512 479" enable-background="new 0 0 512 479" xml:space="preserve">
<rect y="0" fill="#2C2D2D" width="512" height="479"/>
<g>
	<polygon fill="#0194C6" points="61.6,366.5 253,34.8 268.5,61.8 195.2,188.3 333.3,188.3 317.4,215.3 180.2,215.3 248.9,332.5 
		233.4,358.8 164.3,242.9 92.4,366.5 	"/>
	<polygon fill="#FFFEFE" points="462.3,397.7 43.6,397.7 57.1,374.1 448.8,374.1 	"/>
	<polygon fill="#C01B2F" points="342.4,190.2 357,215 267.9,368.5 238.1,368.5 	"/>
	<path fill="#F7F7F7" d="M307.2,413.1c-2.6,7.1-5.1,14.2-7.7,21.3c-0.1,0.4-0.3,0.7-0.4,1.1c-0.2,1.3-1,1.5-2.2,1.6
		c-1.2,0-1.6-0.6-2-1.6c-2.3-7-4.9-14-7-21.1c-0.1-0.5-0.3-0.9-0.5-1.3c0-0.7-0.1-1.4-0.8-1.9c0,0.7,0.1,1.3,0.1,1.9
		c-0.2,3.1-0.4,6.2-0.5,9.3c-0.2,4.1-0.4,8.1-0.7,12.2c-0.1,2.6-0.1,2.6-2.7,2.5c-0.4,0-0.8,0-1.3-0.3c0.3-4.3,0.5-8.6,0.8-13
		c0.4-5.4,0.8-10.8,1.2-16.3c0.1-1.2,0.3-1.6,1.7-1.7c3.6,0,3.6-0.1,4.8,3.3c2.4,6.9,5,13.6,6.9,20.7c0.1,0.3,0.3,0.6,0.4,0.9
		c0.7-0.8,0.7-1.8,1-2.7c2.2-7,4.9-13.8,7.4-20.8c0.3-0.9,0.7-1.4,1.8-1.4c3.9-0.1,3.8-0.2,4.1,3.7c0.6,9.1,1.1,18.2,1.7,27.2
		c-0.2,0.1-0.3,0.3-0.4,0.3c-4.3,0.1-3.5,0.5-3.8-3.4c-0.4-6.9-0.7-13.7-1.1-20.6c0.2-0.8,0.2-1.5-0.2-2.6
		C307.7,411.6,307.1,412.2,307.2,413.1z"/>
	<path fill="#F7F7F7" d="M396,436.5c2.8,0.6,5.1,1.1,7.4,1.6c1.4,0.3,1.4,0.4,1,1.8c-0.6,2-0.6,2-2.7,1.4c-2.5-0.7-5.1-1.5-7.6-2.3
		c-2.1-0.7-4.1-1.2-6.3-1.5c-5.1-0.8-8.8-3.8-10.6-8.7c-1.9-5-1.7-10.1,0.4-15c2.4-5.6,7.9-8.8,13.8-8.4c6.1,0.4,10.7,4.3,12.4,10.3
		c1,3.8,1,7.6-0.1,11.4C402.8,431.2,401.1,433.2,396,436.5z M380.5,421.6c-0.1,3.2,0.6,6.1,2.4,8.7c3.9,5.6,11.8,5.5,15.2-0.4
		c3.1-5.4,3.2-11,0.2-16.5c-3.6-6.4-12.2-6.2-15.8,0.2C381,416.1,380.5,418.8,380.5,421.6z"/>
	<path fill="#F7F7F7" d="M176.1,412.4c0,0.6,0,1.2,0,1.9c0,7,0.1,13.9,0.1,20.9c0,2,0.4,2-2.1,2c-0.5,0-0.9,0-1.3,0
		c-0.6-0.7-0.3-1.4-0.3-2c0-9,0-17.9,0-26.9c0-2.5-0.2-2.3,2.3-2.4c1.5-0.1,2.5,0.4,3.3,1.7c4.5,7.5,9.5,14.6,13.5,22.4
		c0.1,0.1,0.2,0.2,0.3,0.3c0.6-0.1,0.4-0.6,0.3-0.9c-0.4-7.3-0.1-14.6-0.2-21.8c0-1.6,0-1.6,1.8-1.6c1.9,0,2,0,2,2
		c0,9.4,0,18.7,0,28.1c0,0.3,0,0.6-0.1,1c-0.3,0.1-0.6,0.2-0.9,0.2c-3,0.2-3.1,0.2-4.7-2.5c-4.5-7.4-9.4-14.5-13.4-22.2
		C176.6,412.3,176.5,412.2,176.1,412.4z"/>
	<path fill="#F7F7F7" d="M252,421.3c0.1,2.6-0.3,5-1.2,7.2c-2.2,5.9-7.2,9.2-13.8,9.1c-6-0.1-10.7-3.7-12.6-9.6
		c-1.5-4.7-1.4-9.5,0.6-14c2.5-5.9,7.9-8.9,14-8.5c6.3,0.4,10.9,4.5,12.4,10.8C251.9,418,252.1,419.8,252,421.3z M227.9,421.7
		c-0.1,2.8,0.5,5.4,1.9,7.8c1.8,3.1,4.4,4.8,8,4.8c3.7,0,6.4-1.8,8.1-5.1c2.5-5,2.5-10.2,0.1-15.2c-1.6-3.4-4.4-5.2-8.2-5.2
		c-3.9,0-6.6,2.1-8.3,5.5C228.3,416.6,227.8,419.1,227.9,421.7z"/>
	<path fill="#F7F7F7" d="M140.4,420.5c0.4,0.2,0.8,0.4,1.2,0.6c3.1,1.5,4.7,4.1,4.5,7.5c-0.2,3.6-2,6.2-5.4,7.5
		c-4.3,1.6-8.8,1.4-13.3,1c-0.7-0.1-0.9-0.4-0.9-1.1c0-0.4,0-0.8,0-1.2c0-8.8,0-17.6,0-26.4c0-2.2,0-2.3,2.2-2.5
		c3.5-0.3,7-0.6,10.5,0.4c3.9,1.1,5.9,3.8,5.8,7.5c-0.1,2.1-1.1,3.8-2.7,5.1C141.7,419.5,140.9,419.7,140.4,420.5z M130.6,428
		c0,1.7,0,3.3,0,5c0,0.8,0.3,1.2,1.1,1.2c2,0,4,0.2,5.9-0.4c2.8-0.9,4.4-2.8,4.4-5.5c0-2.7-1.7-4.7-4.5-5.5
		c-1.9-0.5-3.8-0.5-5.7-0.5c-0.9,0-1.3,0.4-1.2,1.3C130.6,425,130.6,426.5,130.6,428z M130.6,414.1
		C130.6,414.1,130.6,414.1,130.6,414.1c0,1.4,0,2.7,0,4.1c0,0.5,0.1,1,0.8,1c2.4,0.1,4.8,0.2,7-1c1.9-1,2.9-3,2.6-5
		c-0.3-2.1-1.6-3.4-3.6-4c-1.7-0.5-3.5-0.5-5.2-0.3c-1,0.1-1.6,0.4-1.5,1.6C130.6,411.7,130.6,412.9,130.6,414.1z"/>
	<path fill="#F7F7F7" d="M257.3,436.9c0-1.1,0-2.2,0-3.3c0-8.4,0-16.8,0-25.2c0-2.1,0-2.2,2-2.4c3.4-0.4,6.9-0.6,10.3,0.1
		c4,0.8,6.3,3.1,6.8,6.4c0.6,3.9-0.8,6.9-4.4,9c-0.3,0.2-0.5,0.3-1.1,0.6c3.1,1.7,3.9,4.7,4.6,7.7c0.5,2.3,1.2,4.6,1.8,6.8
		c-0.1,0.1-0.2,0.2-0.2,0.2c-4.7,0.2-3.6,0.5-4.8-3.3c-0.5-1.6-0.8-3.3-1.2-4.9c-1-3.8-2.7-5.1-6.7-5.2c-0.2,0-0.5,0-0.7,0
		c-2.3,0-2.4-0.4-2.3,2.3c0,3.3,0,6.6,0,9.8c0,1-0.3,1.5-1.4,1.4C259.2,437.1,258.3,437.3,257.3,436.9z M261.4,414.7
		c0,1.6,0,3.2,0,4.8c0,0.5,0,1.1,0.6,1.1c2.9,0.1,6,0.5,8.5-1.6c3.3-2.7,2.4-8.1-1.6-9.5c-2.1-0.8-4.2-0.8-6.3-0.4
		c-0.9,0.1-1.2,0.5-1.2,1.4C261.4,411.9,261.4,413.3,261.4,414.7z"/>
	<path fill="#F7F7F7" d="M96.5,406.1c3.8-0.4,3.8-0.4,3.8,3.2c0,4.9,0,9.8,0,14.6c0,2,0.2,4,0.9,5.9c1.1,2.9,3.4,4.5,6.4,4.5
		c3.2,0,5.5-1.5,6.7-4.5c0.6-1.6,0.8-3.2,0.8-4.9c0-5.5,0-11,0-16.6c0-0.8-0.4-1.9,0.4-2.2c1-0.5,2.2-0.3,3.3-0.1
		c0.8,0.2,0.5,1.1,0.5,1.7c0,5.3,0,10.6,0,15.8c0,1.4-0.1,2.7-0.3,4.1c-1.2,8.2-8.9,12.4-16.5,9.1c-4.1-1.8-5.5-5.3-6.1-9.4
		c-0.1-1-0.1-2.1-0.1-3.1c0-5.3,0-10.6,0-15.8C96.4,407.7,96.2,406.9,96.5,406.1z"/>
	<path fill="#F7F7F7" d="M409.8,406.1c4-0.5,4-0.5,4,3.2c0,4.9,0,9.8,0,14.6c0,2,0.2,4,0.9,5.9c1.1,3,3.3,4.5,6.4,4.5
		c3.2,0,5.5-1.5,6.7-4.5c0.7-1.7,0.8-3.4,0.8-5.2c0-5.6,0-11.2,0-16.8c0-0.6-0.4-1.6,0.6-1.8c1.1-0.2,2.2-0.3,3.3,0.1
		c0.3,0.1,0.3,0.5,0.3,0.9c-0.2,6.9,0.5,13.8-0.3,20.6c-1.1,8.2-8.8,12.4-16.5,9.2c-4.1-1.8-5.6-5.3-6.1-9.3c-0.1-1-0.1-2.1-0.1-3.1
		c0-5.3,0-10.6,0-15.8C409.8,407.7,409.8,406.9,409.8,406.1z"/>
	<path fill="#F7F7F7" d="M342.5,436.9c-0.1,0.1-0.1,0.2-0.2,0.2c-3.8,0.4-3.8,0.4-5-3.1c-0.6-1.7-1.3-3.4-1.8-5.2
		c-0.3-1.1-0.9-1.4-1.9-1.3c-2.7,0.1-5.4,0.1-8.1,0c-1.2,0-1.7,0.5-2,1.5c-0.7,2.3-1.6,4.5-2.2,6.8c-0.3,1.2-0.9,1.6-2,1.4
		c-0.8-0.1-1.6,0-2.5,0c0.2-1.7,0.9-3,1.3-4.4c2.8-8.3,5.6-16.6,8.4-24.9c0.6-1.9,0.7-1.9,2.7-1.9c0.4,0,0.8,0,1.2,0
		c1.2-0.2,1.8,0.3,2.2,1.5c1.7,5.2,3.5,10.3,5.2,15.4c1.5,4.3,2.9,8.6,4.4,12.9C342.4,436.1,342.7,436.5,342.5,436.9z M329.5,409.9
		c-1.2,5.1-3.1,9.5-4.4,14.2c3.2,0,6,0,9,0C332.6,419.4,331.1,414.9,329.5,409.9z"/>
	<path fill="#F7F7F7" d="M456.8,409.4c-3.2,0-6.4,0-9.6,0c-0.6,0-1.3,0-1.9,0c-0.9-0.1-1.3,0.4-1.2,1.3c0,2.4,0,4.8,0,7.2
		c0,1,0.3,1.4,1.4,1.4c3.1,0,6.2,0,9.4,0c0.5,0,1.3-0.2,1.4,0.5c0.1,0.8,0.3,1.8-0.2,2.6c-0.3,0.5-0.9,0.2-1.3,0.2
		c-3,0-6.1,0.1-9.1,0c-1.2,0-1.5,0.4-1.5,1.5c0.1,2.7,0.1,5.4,0,8.2c0,1.1,0.3,1.5,1.5,1.5c3.3-0.1,6.6,0,9.8,0
		c2.2,0,2.3-0.5,2.2,2.4c0,0.2-0.1,0.5-0.1,0.7c-0.3,0.5-0.7,0.4-1.1,0.4c-4.9,0-9.8,0-14.6,0c-1.6,0-1.7,0-1.7-1.7
		c0-9.2,0-18.4,0-27.6c0-1.9,0-1.9,2-1.9c4.2,0,8.5,0,12.7,0c2.1,0,2.1,0,2.1,2.1C456.9,408.4,456.8,408.8,456.8,409.4z"/>
	<path fill="#0194C6" d="M62.5,437.6c-2,0-4.7-0.4-7.3-1.7c-3-1.5-5.1-3.8-6.3-6.9c-1.9-4.9-1.9-9.7,0.2-14.5
		c2.8-6.4,9-9.2,15.9-8.9c1.7,0.1,3.5,0.3,5.2,0.9c1.5,0.5,0.8,1.5,0.6,2.4c-0.2,1-0.7,1.3-1.7,0.9c-2.8-1-5.6-1.1-8.5-0.4
		c-3.9,1-6.6,3.4-7.9,7.3c-1.1,3.5-1.2,6.9,0,10.4c1.5,4.4,5.1,7.1,9.7,7.3c2.2,0.1,4.5,0.1,6.6-0.7c1-0.4,1.5-0.1,1.7,0.9
		c0.4,1.5,0.3,1.9-0.8,2.3C67.8,437.4,65.6,437.6,62.5,437.6z"/>
	<path fill="#F7F7F7" d="M202.9,421.4c0-4.5,0-9,0-13.4c0-2,0-2,2.1-2c4.4,0,8.8,0,13.2,0c1.5,0,1.5,0.1,1.5,1.7
		c0,1.1-0.1,1.8-1.5,1.8c-3.2-0.1-6.4,0-9.6,0c-1.8,0-1.8,0-1.8,1.9c0,2.3,0,4.6,0,7c0,1.2,0.4,1.5,1.5,1.5c3-0.1,5.9,0,8.9,0
		c1.5,0,1.5,0.1,1.5,1.7c0,1.6,0,1.7-1.5,1.7c-3,0-5.9,0.1-8.9,0c-1.2,0-1.5,0.4-1.5,1.5c0.1,3.5,0,7,0,10.6c0,2,0,2-2.1,2
		c-0.1,0-0.2,0-0.2,0c-1.2,0.2-1.6-0.3-1.6-1.6C203,430.9,202.9,426.2,202.9,421.4z"/>
	<path fill="#FFFEFE" d="M353.8,423.6c0,3.8,0,7.5,0,11.3c0,2.6,0.5,2.2-2.5,2.4c-1.4,0.1-1.5-0.6-1.5-1.7c0-5,0-9.9,0-14.9
		c0-3.2-0.1-6.4,0-9.6c0-1.3-0.4-1.7-1.7-1.6c-2.2,0.1-4.5,0-6.7,0c-1.4,0-1.2-0.9-1.2-1.8c0-0.9-0.1-1.7,1.3-1.7
		c6.9,0,13.7,0,20.6,0c1.4,0,1.2,0.9,1.2,1.8c0,0.9,0.2,1.8-1.2,1.7c-2.2-0.1-4.3,0-6.5,0c-1.8,0-1.8,0-1.8,1.9
		C353.8,415.4,353.8,419.5,353.8,423.6z"/>
	<path fill="#F7F7F7" d="M76.7,437.2c-0.4-0.7-0.3-1.3-0.3-1.8c0-9.1,0-18.2,0-27.3c0-0.7-0.4-1.7,0.4-2c1-0.4,2.2-0.3,3.3,0
		c0.5,0.2,0.4,0.8,0.4,1.3c0,1.9,0,3.8,0,5.7c0,6.2,0,12.4,0,18.7c0,1.9,0,1.9,2,1.9c3.3,0,6.5,0.1,9.8,0c1.4,0,1.6,0.6,1.5,1.7
		c0,1.7,0,1.7-1.5,1.7C87.1,437.2,81.8,437.2,76.7,437.2z"/>
	<path fill="#C01B2F" d="M161.3,421.4c0-4.5,0-9,0-13.4c0-0.7-0.3-1.6,0.6-1.9c1-0.3,2.1-0.3,3.1,0c0.5,0.2,0.5,0.8,0.5,1.2
		c0,1.4,0,2.7,0,4.1c0,7.7,0,15.3,0,23c0,2.6-0.6,3.1-3.1,2.6c-0.7-0.1-1-0.4-1-1.1c0-0.9,0-1.8,0-2.6
		C161.3,429.4,161.3,425.4,161.3,421.4z"/>
	<path fill="#FFFEFE" d="M371,421.6c0,4.6,0,9.1,0,13.7c0,1.8,0,1.9-1.8,1.9c-2.4,0-2.1,0.2-2.2-2.2c0-8.9,0-17.9,0-26.8
		c0-0.7-0.4-1.7,0.4-2c0.9-0.4,2.1-0.3,3.1-0.1c0.7,0.1,0.5,0.9,0.5,1.4c0,3.3,0,6.5,0,9.8C371,418.7,371,420.2,371,421.6z"/>
</g>
</svg>
